<svg width="201" height="133" viewBox="0 0 201 133" fill="none" xmlns="http://www.w3.org/2000/svg">
<mask id="mask0_2_5" style="mask-type:luminance" maskUnits="userSpaceOnUse" x="0" y="0" width="201" height="133">
<path d="M0 1.52588e-05H200.105V133H0V1.52588e-05Z" fill="white"/>
</mask>
<g mask="url(#mask0_2_5)">
<path d="M41.1099 87.0595C44.5685 87.0595 47.4413 84.4654 47.4413 80.4192C47.4413 76.3736 44.5685 73.7795 41.1099 73.7795C37.6507 73.7795 34.7785 76.3736 34.7785 80.4192C34.7785 84.4654 37.6507 87.0595 41.1099 87.0595ZM29.7444 80.4192C29.7444 73.7178 34.9024 69.1468 41.1099 69.1468C47.2865 69.1468 52.4747 73.7178 52.4747 80.4192C52.4747 87.1212 47.2865 91.6922 41.1099 91.6922C34.9024 91.6922 29.7444 87.1212 29.7444 80.4192Z" fill="#595956"/>
<path d="M69.783 91.3832H65.4043C65.2919 91.3832 65.2 91.2919 65.2 91.1789V89.9565C65.2 89.766 64.9642 89.6796 64.8415 89.8253C63.9093 90.9304 62.4505 91.6921 60.444 91.6921C57.2012 91.6921 54.453 89.6844 54.453 84.7743V75.5278C54.453 75.4153 54.5443 75.3235 54.6567 75.3235H59.0354C59.1485 75.3235 59.2398 75.4153 59.2398 75.5278V83.94C59.2398 85.9477 60.2584 87.4301 62.2353 87.4301C64.1807 87.4301 65.2 85.9477 65.2 83.94V75.5278C65.2 75.4153 65.2919 75.3235 65.4043 75.3235H69.783C69.8961 75.3235 69.9874 75.4153 69.9874 75.5278V91.1789C69.9874 91.2919 69.8961 91.3832 69.783 91.3832Z" fill="#595956"/>
<path d="M71.499 75.3238H75.9321C76.0161 75.3238 76.0917 75.3751 76.1225 75.4537L79.9584 85.2752C80.0255 85.4487 80.2709 85.4487 80.3386 85.2752L84.1745 75.4537C84.2047 75.3751 84.2803 75.3238 84.3643 75.3238H88.7974C88.9437 75.3238 89.0423 75.4725 88.9861 75.6067L82.4243 91.2578C82.3923 91.3339 82.3185 91.3835 82.2363 91.3835H78.0607C77.9785 91.3835 77.9041 91.3339 77.8721 91.2578L71.311 75.6067C71.2541 75.4725 71.3533 75.3238 71.499 75.3238Z" fill="#595956"/>
<path d="M90.5138 75.3238H94.8925C95.0049 75.3238 95.0962 75.415 95.0962 75.5281V91.1792C95.0962 91.2916 95.0049 91.3835 94.8925 91.3835H90.5138C90.4007 91.3835 90.3094 91.2916 90.3094 91.1792V75.5281C90.3094 75.415 90.4007 75.3238 90.5138 75.3238ZM90.5138 69.456H94.8925C95.0049 69.456 95.0962 69.5473 95.0962 69.6598V73.4207C95.0962 73.5337 95.0049 73.625 94.8925 73.625H90.5138C90.4007 73.625 90.3094 73.5337 90.3094 73.4207V69.6598C90.3094 69.5473 90.4007 69.456 90.5138 69.456Z" fill="#595956"/>
<path d="M105.257 87.4301C107.357 87.4301 109.241 85.9786 109.241 83.3536C109.241 80.7281 107.357 79.2766 105.257 79.2766C103.219 79.2766 101.335 80.7589 101.335 83.3536C101.335 85.9477 103.219 87.4301 105.257 87.4301ZM109.322 91.3832C109.209 91.3832 109.118 91.2919 109.118 91.1789V89.5611H109.025C108.778 90.1481 107.11 91.6921 104.269 91.6921C100.625 91.6921 96.6099 88.9433 96.6099 83.3536C96.6099 77.7634 100.625 75.0151 104.269 75.0151C107.11 75.0151 108.778 76.5591 109.025 77.1456H109.118V69.6601C109.118 69.547 109.209 69.4557 109.322 69.4557H113.7C113.813 69.4557 113.905 69.547 113.905 69.6601V91.1789C113.905 91.2919 113.813 91.3832 113.7 91.3832H109.322Z" fill="#595956"/>
<path d="M123.943 87.3683C126.012 87.3683 127.741 85.8243 127.741 83.3535C127.741 80.8827 126.012 79.3387 123.943 79.3387C121.874 79.3387 120.145 80.8827 120.145 83.3535C120.145 85.8243 121.874 87.3683 123.943 87.3683ZM115.419 83.3535C115.419 77.8872 119.743 75.015 123.943 75.015C128.143 75.015 132.467 77.8872 132.467 83.3535C132.467 88.8198 128.143 91.692 123.943 91.692C119.743 91.692 115.419 88.8198 115.419 83.3535Z" fill="#595956"/>
<path d="M134.185 75.3238H138.564C138.676 75.3238 138.767 75.415 138.767 75.5281V78.2425C138.767 78.468 139.079 78.526 139.16 78.3157C139.903 76.3956 141.368 75.0148 143.74 75.0148C144.064 75.0148 144.387 75.0384 144.732 75.1267C144.821 75.1496 144.882 75.2331 144.882 75.325V79.4721C144.882 79.5943 144.775 79.691 144.654 79.6747C144.368 79.636 144.089 79.6166 143.771 79.6166C140.59 79.6166 138.767 81.7477 138.767 84.774V91.1792C138.767 91.2916 138.676 91.3835 138.564 91.3835H134.185C134.072 91.3835 133.981 91.2916 133.981 91.1792V75.5281C133.981 75.415 134.072 75.3238 134.185 75.3238Z" fill="#595956"/>
<path d="M146.601 75.3238H150.979C151.092 75.3238 151.183 75.415 151.183 75.5281V91.1792C151.183 91.2916 151.092 91.3835 150.979 91.3835H146.601C146.488 91.3835 146.396 91.2916 146.396 91.1792V75.5281C146.396 75.415 146.488 75.3238 146.601 75.3238ZM146.601 69.456H150.979C151.092 69.456 151.183 69.5473 151.183 69.6598V73.4207C151.183 73.5337 151.092 73.625 150.979 73.625H146.601C146.488 73.625 146.396 73.5337 146.396 73.4207V69.6598C146.396 69.5473 146.488 69.456 146.601 69.456Z" fill="#595956"/>
<path d="M161.344 87.4301C163.444 87.4301 165.328 85.9786 165.328 83.3536C165.328 80.7281 163.444 79.2766 161.344 79.2766C159.306 79.2766 157.422 80.7589 157.422 83.3536C157.422 85.9477 159.306 87.4301 161.344 87.4301ZM152.697 83.3536C152.697 77.7634 156.712 75.0151 160.356 75.0151C163.197 75.0151 164.865 76.5591 165.112 77.1456H165.205V75.5278C165.205 75.4153 165.296 75.3235 165.409 75.3235H169.787C169.9 75.3235 169.992 75.4153 169.992 75.5278V91.1789C169.992 91.2919 169.9 91.3832 169.787 91.3832H165.409C165.296 91.3832 165.205 91.2919 165.205 91.1789V89.5611H165.112C164.865 90.1481 163.197 91.6921 160.356 91.6921C156.712 91.6921 152.697 88.9433 152.697 83.3536Z" fill="#595956"/>
<path d="M43.6337 102.46C44.4063 102.46 44.8071 101.934 44.8071 101.167C44.8071 100.4 44.4063 99.8735 43.6337 99.8735H43.0944C43.0285 99.8735 42.9753 99.9267 42.9753 99.992V102.341C42.9753 102.407 43.0285 102.46 43.0944 102.46H43.6337ZM42.1912 99.2539C42.1912 99.188 42.2444 99.1348 42.3103 99.1348H43.6621C44.7841 99.1348 45.6257 99.9708 45.6257 101.167C45.6257 102.363 44.7841 103.199 43.6621 103.199H42.3103C42.2444 103.199 42.1912 103.145 42.1912 103.08V99.2539Z" fill="#595956"/>
<path d="M48.8082 102.512C49.5064 102.512 50.0958 101.985 50.0958 101.167C50.0958 100.348 49.5064 99.8216 48.8082 99.8216C48.116 99.8216 47.5205 100.348 47.5205 101.167C47.5205 101.985 48.116 102.512 48.8082 102.512ZM46.7189 101.167C46.7189 99.9189 47.6746 99.0774 48.8082 99.0774C49.9417 99.0774 50.9029 99.9189 50.9029 101.167C50.9029 102.415 49.9417 103.256 48.8082 103.256C47.6746 103.256 46.7189 102.415 46.7189 101.167Z" fill="#595956"/>
<path d="M53.9195 101.167C53.9195 99.9021 54.8814 99.0775 56.0258 99.0775C56.5433 99.0775 57.1744 99.254 57.6042 99.8622C57.6417 99.9148 57.626 99.9885 57.5734 100.025L57.1944 100.29C57.1448 100.324 57.0765 100.317 57.0378 100.271C56.7736 99.9535 56.4175 99.8217 56.0373 99.8217C55.3106 99.8217 54.7212 100.331 54.7212 101.167C54.7212 101.997 55.2991 102.535 56.0373 102.535C56.4925 102.535 56.9096 102.338 57.0698 101.823C57.0934 101.748 57.0348 101.67 56.9556 101.67H56.2537C56.1878 101.67 56.1346 101.617 56.1346 101.552V101.131C56.1346 101.065 56.1878 101.012 56.2537 101.012H57.762C57.8231 101.012 57.8751 101.058 57.8811 101.118C58.0051 102.462 57.0964 103.256 56.0028 103.256C54.8753 103.256 53.9195 102.432 53.9195 101.167Z" fill="#595956"/>
<path d="M61.0744 102.512C61.7726 102.512 62.3621 101.985 62.3621 101.167C62.3621 100.348 61.7726 99.8216 61.0744 99.8216C60.3822 99.8216 59.7867 100.348 59.7867 101.167C59.7867 101.985 60.3822 102.512 61.0744 102.512ZM58.9851 101.167C58.9851 99.9189 59.9408 99.0774 61.0744 99.0774C62.2079 99.0774 63.1691 99.9189 63.1691 101.167C63.1691 102.415 62.2079 103.256 61.0744 103.256C59.9408 103.256 58.9851 102.415 58.9851 101.167Z" fill="#595956"/>
<path d="M63.9778 99.1348H64.5691C64.6187 99.1348 64.6634 99.1657 64.6803 99.2128L65.6736 101.916C65.7117 102.02 65.8586 102.02 65.8967 101.916L66.8899 99.2128C66.9075 99.1657 66.9516 99.1348 67.0018 99.1348H67.5924C67.6758 99.1348 67.7333 99.2189 67.7037 99.2963L66.2267 103.122C66.2092 103.168 66.1651 103.199 66.1161 103.199H65.4493C65.3997 103.199 65.3556 103.168 65.3381 103.122L63.8672 99.2963C63.837 99.2183 63.8944 99.1348 63.9778 99.1348Z" fill="#595956"/>
<path d="M68.9551 99.1348H71.0184C71.0843 99.1348 71.1375 99.188 71.1375 99.2539V99.737C71.1375 99.8029 71.0843 99.8561 71.0184 99.8561H69.7392C69.6739 99.8561 69.6207 99.9093 69.6207 99.9746V100.682C69.6207 100.747 69.6739 100.8 69.7392 100.8H70.7778C70.8437 100.8 70.8969 100.854 70.8969 100.919V101.392C70.8969 101.457 70.8437 101.51 70.7778 101.51H69.7392C69.6739 101.51 69.6207 101.563 69.6207 101.629V102.359C69.6207 102.424 69.6739 102.477 69.7392 102.477H71.0698C71.1357 102.477 71.1889 102.531 71.1889 102.596V103.08C71.1889 103.145 71.1357 103.199 71.0698 103.199H68.9551C68.8892 103.199 68.836 103.145 68.836 103.08V99.2539C68.836 99.188 68.8892 99.1348 68.9551 99.1348Z" fill="#595956"/>
<path d="M73.7129 101.173C74.1421 101.173 74.4341 100.989 74.4341 100.514C74.4341 100.045 74.1421 99.8559 73.7129 99.8559H73.271C73.2051 99.8559 73.1519 99.9091 73.1519 99.975V101.054C73.1519 101.119 73.2051 101.173 73.271 101.173H73.7129ZM73.6923 101.854H73.271C73.2051 101.854 73.1519 101.907 73.1519 101.972V103.08C73.1519 103.146 73.0987 103.199 73.0334 103.199H72.4869C72.421 103.199 72.3678 103.146 72.3678 103.08V99.2538C72.3678 99.1879 72.421 99.1347 72.4869 99.1347H73.7927C74.6572 99.1347 75.2297 99.6842 75.2297 100.514C75.2297 101.049 74.9945 101.449 74.5943 101.667C74.5345 101.699 74.5151 101.777 74.552 101.834L75.3119 103.016C75.3633 103.095 75.3065 103.199 75.2122 103.199H74.6602C74.6191 103.199 74.581 103.178 74.5593 103.143L73.7933 101.91C73.7715 101.875 73.7335 101.854 73.6923 101.854Z" fill="#595956"/>
<path d="M76.6994 99.1348H77.3015C77.3408 99.1348 77.3777 99.1548 77.4001 99.1874L79.2306 101.911H79.259V99.2539C79.259 99.188 79.3122 99.1348 79.3781 99.1348H79.9247C79.9899 99.1348 80.0431 99.188 80.0431 99.2539V103.08C80.0431 103.145 79.9899 103.199 79.9247 103.199H79.3225C79.2832 103.199 79.2457 103.179 79.224 103.146L77.3934 100.423H77.365V103.08C77.365 103.145 77.3118 103.199 77.2459 103.199H76.6994C76.6335 103.199 76.5803 103.145 76.5803 103.08V99.2539C76.5803 99.188 76.6335 99.1348 76.6994 99.1348Z" fill="#595956"/>
<path d="M83.3461 102.512C84.0444 102.512 84.6338 101.985 84.6338 101.167C84.6338 100.348 84.0444 99.8216 83.3461 99.8216C82.6539 99.8216 82.0584 100.348 82.0584 101.167C82.0584 101.985 82.6539 102.512 83.3461 102.512ZM81.2568 101.167C81.2568 99.9189 82.2126 99.0774 83.3461 99.0774C84.4797 99.0774 85.4409 99.9189 85.4409 101.167C85.4409 102.415 84.4797 103.256 83.3461 103.256C82.2126 103.256 81.2568 102.415 81.2568 101.167Z" fill="#595956"/>
<path d="M89.9572 102.46C90.7298 102.46 91.1306 101.934 91.1306 101.167C91.1306 100.4 90.7298 99.8735 89.9572 99.8735H89.4179C89.352 99.8735 89.2988 99.9267 89.2988 99.992V102.341C89.2988 102.407 89.352 102.46 89.4179 102.46H89.9572ZM88.5147 99.2539C88.5147 99.188 88.5679 99.1348 88.6338 99.1348H89.9856C91.1076 99.1348 91.9491 99.9708 91.9491 101.167C91.9491 102.363 91.1076 103.199 89.9856 103.199H88.6338C88.5679 103.199 88.5147 103.145 88.5147 103.08V99.2539Z" fill="#595956"/>
<path d="M95.1317 102.512C95.8299 102.512 96.4194 101.985 96.4194 101.167C96.4194 100.348 95.8299 99.8216 95.1317 99.8216C94.4395 99.8216 93.844 100.348 93.844 101.167C93.844 101.985 94.4395 102.512 95.1317 102.512ZM93.0424 101.167C93.0424 99.9189 93.9982 99.0774 95.1317 99.0774C96.2652 99.0774 97.2264 99.9189 97.2264 101.167C97.2264 102.415 96.2652 103.256 95.1317 103.256C93.9982 103.256 93.0424 102.415 93.0424 101.167Z" fill="#595956"/>
<path d="M101.743 102.46C102.515 102.46 102.916 101.934 102.916 101.167C102.916 100.4 102.515 99.8735 101.743 99.8735H101.203C101.138 99.8735 101.084 99.9267 101.084 99.992V102.341C101.084 102.407 101.138 102.46 101.203 102.46H101.743ZM100.3 99.2539C100.3 99.188 100.353 99.1348 100.419 99.1348H101.771C102.893 99.1348 103.735 99.9708 103.735 101.167C103.735 102.363 102.893 103.199 101.771 103.199H100.419C100.353 103.199 100.3 103.145 100.3 103.08V99.2539Z" fill="#595956"/>
<path d="M105.004 99.1348H105.551C105.616 99.1348 105.67 99.188 105.67 99.2539V103.08C105.67 103.145 105.616 103.199 105.551 103.199H105.004C104.938 103.199 104.885 103.145 104.885 103.08V99.2539C104.885 99.188 104.938 99.1348 105.004 99.1348Z" fill="#595956"/>
<path d="M106.885 102.2L107.316 102.002C107.374 101.975 107.443 101.999 107.472 102.057C107.602 102.326 107.846 102.546 108.211 102.546C108.531 102.546 108.806 102.38 108.806 102.025C108.806 101.728 108.629 101.596 108.216 101.43L107.959 101.333C107.404 101.109 106.946 100.8 106.946 100.182C106.946 99.5013 107.513 99.0775 108.199 99.0775C108.84 99.0775 109.25 99.4391 109.454 99.8308C109.484 99.8882 109.464 99.959 109.407 99.9904L109.022 100.206C108.968 100.236 108.898 100.219 108.865 100.166C108.701 99.9046 108.494 99.7758 108.228 99.7758C107.936 99.7758 107.719 99.9191 107.719 100.188C107.719 100.4 107.839 100.566 108.285 100.738L108.56 100.846C109.269 101.132 109.624 101.453 109.624 102.031C109.624 102.855 108.903 103.256 108.222 103.256C107.556 103.256 107.005 102.887 106.822 102.349C106.802 102.29 106.828 102.226 106.885 102.2Z" fill="#595956"/>
<path d="M111.292 99.856H110.55C110.485 99.856 110.432 99.8028 110.432 99.7369V99.2539C110.432 99.188 110.485 99.1348 110.55 99.1348H113.054C113.12 99.1348 113.174 99.188 113.174 99.2539V99.7369C113.174 99.8028 113.12 99.856 113.054 99.856H112.313C112.248 99.856 112.195 99.9092 112.195 99.9751V103.08C112.195 103.145 112.142 103.199 112.076 103.199H111.529C111.464 103.199 111.411 103.145 111.411 103.08V99.9751C111.411 99.9092 111.358 99.856 111.292 99.856Z" fill="#595956"/>
<path d="M115.64 101.173C116.07 101.173 116.362 100.989 116.362 100.514C116.362 100.045 116.07 99.8559 115.64 99.8559H115.198C115.133 99.8559 115.079 99.9091 115.079 99.975V101.054C115.079 101.119 115.133 101.173 115.198 101.173H115.64ZM115.62 101.854H115.198C115.133 101.854 115.079 101.907 115.079 101.972V103.08C115.079 103.146 115.026 103.199 114.961 103.199H114.414C114.348 103.199 114.295 103.146 114.295 103.08V99.2538C114.295 99.1879 114.348 99.1347 114.414 99.1347H115.72C116.585 99.1347 117.157 99.6842 117.157 100.514C117.157 101.049 116.922 101.449 116.522 101.667C116.462 101.699 116.443 101.777 116.479 101.834L117.239 103.016C117.291 103.095 117.234 103.199 117.14 103.199H116.588C116.547 103.199 116.508 103.178 116.487 103.143L115.721 101.91C115.699 101.875 115.661 101.854 115.62 101.854Z" fill="#595956"/>
<path d="M118.57 99.1348H119.116C119.182 99.1348 119.235 99.188 119.235 99.2539V103.08C119.235 103.145 119.182 103.199 119.116 103.199H118.57C118.504 103.199 118.451 103.145 118.451 103.08V99.2539C118.451 99.188 118.504 99.1348 118.57 99.1348Z" fill="#595956"/>
<path d="M121.217 99.856H120.476C120.41 99.856 120.357 99.8028 120.357 99.7369V99.2539C120.357 99.188 120.41 99.1348 120.476 99.1348H122.98C123.046 99.1348 123.099 99.188 123.099 99.2539V99.7369C123.099 99.8028 123.046 99.856 122.98 99.856H122.239C122.173 99.856 122.12 99.9092 122.12 99.9751V103.08C122.12 103.145 122.067 103.199 122.001 103.199H121.454C121.389 103.199 121.336 103.145 121.336 103.08V99.9751C121.336 99.9092 121.283 99.856 121.217 99.856Z" fill="#595956"/>
<path d="M125.966 102.512C126.665 102.512 127.254 101.985 127.254 101.167C127.254 100.348 126.665 99.8216 125.966 99.8216C125.274 99.8216 124.679 100.348 124.679 101.167C124.679 101.985 125.274 102.512 125.966 102.512ZM123.877 101.167C123.877 99.9189 124.833 99.0774 125.966 99.0774C127.1 99.0774 128.061 99.9189 128.061 101.167C128.061 102.415 127.1 103.256 125.966 103.256C124.833 103.256 123.877 102.415 123.877 101.167Z" fill="#595956"/>
<path d="M131.254 99.1348H133.3C133.365 99.1348 133.419 99.188 133.419 99.2539V99.7315C133.419 99.7968 133.365 99.85 133.3 99.85H132.038C131.973 99.85 131.919 99.9032 131.919 99.9691V100.705C131.919 100.77 131.973 100.823 132.038 100.823H133.197C133.263 100.823 133.316 100.877 133.316 100.942V101.374C133.316 101.44 133.263 101.493 133.197 101.493H132.038C131.973 101.493 131.919 101.546 131.919 101.612V103.08C131.919 103.145 131.866 103.199 131.8 103.199H131.254C131.188 103.199 131.135 103.145 131.135 103.08V99.2539C131.135 99.188 131.188 99.1348 131.254 99.1348Z" fill="#595956"/>
<path d="M134.717 99.1348H136.78C136.846 99.1348 136.899 99.188 136.899 99.2539V99.737C136.899 99.8029 136.846 99.8561 136.78 99.8561H135.501C135.436 99.8561 135.382 99.9093 135.382 99.9746V100.682C135.382 100.747 135.436 100.8 135.501 100.8H136.539C136.605 100.8 136.659 100.854 136.659 100.919V101.392C136.659 101.457 136.605 101.51 136.539 101.51H135.501C135.436 101.51 135.382 101.563 135.382 101.629V102.359C135.382 102.424 135.436 102.477 135.501 102.477H136.831C136.897 102.477 136.951 102.531 136.951 102.596V103.08C136.951 103.145 136.897 103.199 136.831 103.199H134.717C134.651 103.199 134.598 103.145 134.598 103.08V99.2539C134.598 99.188 134.651 99.1348 134.717 99.1348Z" fill="#595956"/>
<path d="M139.572 102.46C140.344 102.46 140.745 101.934 140.745 101.167C140.745 100.4 140.344 99.8735 139.572 99.8735H139.033C138.967 99.8735 138.914 99.9267 138.914 99.992V102.341C138.914 102.407 138.967 102.46 139.033 102.46H139.572ZM138.129 99.2539C138.129 99.188 138.183 99.1348 138.249 99.1348H139.6C140.722 99.1348 141.564 99.9708 141.564 101.167C141.564 102.363 140.722 103.199 139.6 103.199H138.249C138.183 103.199 138.129 103.145 138.129 103.08V99.2539Z" fill="#595956"/>
<path d="M142.833 99.1348H144.897C144.962 99.1348 145.016 99.188 145.016 99.2539V99.737C145.016 99.8029 144.962 99.8561 144.897 99.8561H143.617C143.552 99.8561 143.499 99.9093 143.499 99.9746V100.682C143.499 100.747 143.552 100.8 143.617 100.8H144.656C144.722 100.8 144.775 100.854 144.775 100.919V101.392C144.775 101.457 144.722 101.51 144.656 101.51H143.617C143.552 101.51 143.499 101.563 143.499 101.629V102.359C143.499 102.424 143.552 102.477 143.617 102.477H144.948C145.014 102.477 145.067 102.531 145.067 102.596V103.08C145.067 103.145 145.014 103.199 144.948 103.199H142.833C142.767 103.199 142.714 103.145 142.714 103.08V99.2539C142.714 99.188 142.767 99.1348 142.833 99.1348Z" fill="#595956"/>
<path d="M147.591 101.173C148.02 101.173 148.312 100.989 148.312 100.514C148.312 100.045 148.02 99.8559 147.591 99.8559H147.149C147.083 99.8559 147.03 99.9091 147.03 99.975V101.054C147.03 101.119 147.083 101.173 147.149 101.173H147.591ZM147.571 101.854H147.149C147.083 101.854 147.03 101.907 147.03 101.972V103.08C147.03 103.146 146.977 103.199 146.912 103.199H146.365C146.299 103.199 146.246 103.146 146.246 103.08V99.2538C146.246 99.1879 146.299 99.1347 146.365 99.1347H147.671C148.535 99.1347 149.108 99.6842 149.108 100.514C149.108 101.049 148.873 101.449 148.473 101.667C148.413 101.699 148.393 101.777 148.43 101.834L149.19 103.016C149.242 103.095 149.185 103.199 149.09 103.199H148.538C148.497 103.199 148.459 103.178 148.438 103.143L147.672 101.91C147.65 101.875 147.612 101.854 147.571 101.854Z" fill="#595956"/>
<path d="M152.695 101.585L152.265 100.416C152.226 100.312 152.08 100.312 152.042 100.416L151.611 101.585C151.582 101.662 151.64 101.745 151.723 101.745H152.584C152.666 101.745 152.724 101.662 152.695 101.585ZM152.595 99.2109L154.071 103.037C154.101 103.115 154.044 103.199 153.961 103.199H153.369C153.32 103.199 153.275 103.168 153.258 103.121L153.046 102.544C153.029 102.497 152.984 102.466 152.935 102.466H151.372C151.322 102.466 151.278 102.497 151.26 102.544L151.048 103.121C151.031 103.168 150.987 103.199 150.937 103.199H150.346C150.263 103.199 150.205 103.115 150.235 103.037L151.706 99.2109C151.724 99.165 151.768 99.1348 151.817 99.1348H152.484C152.533 99.1348 152.577 99.165 152.595 99.2109Z" fill="#595956"/>
<path d="M155.294 99.1348H155.841C155.907 99.1348 155.96 99.188 155.96 99.2539V102.359C155.96 102.424 156.013 102.477 156.078 102.477H157.426C157.492 102.477 157.545 102.531 157.545 102.596V103.08C157.545 103.145 157.492 103.199 157.426 103.199H155.294C155.228 103.199 155.175 103.145 155.175 103.08V99.2539C155.175 99.188 155.228 99.1348 155.294 99.1348Z" fill="#595956"/>
<path d="M133.073 119.951H66.6638C63.6417 119.951 61.1697 117.478 61.1697 114.457C61.1697 111.434 63.6417 108.962 66.6638 108.962H133.073C136.095 108.962 138.567 111.434 138.567 114.457C138.567 117.478 136.095 119.951 133.073 119.951Z" fill="#0072BF"/>
<path d="M68.0583 115.912C68.672 115.912 69.2705 115.5 69.2705 114.706C69.2705 113.912 68.672 113.5 68.0583 113.5C67.4375 113.5 66.839 113.912 66.839 114.706C66.839 115.5 67.4375 115.912 68.0583 115.912ZM66.281 112.861H66.628C66.7568 112.861 66.8613 112.962 66.8613 113.085V113.45H66.8831C67.0234 113.159 67.5112 112.791 68.2137 112.791C69.123 112.791 70.0757 113.436 70.0757 114.706C70.0757 115.976 69.123 116.621 68.2137 116.621C67.5112 116.621 67.0234 116.252 66.8831 115.962H66.8613V117.675C66.8613 117.798 66.7568 117.898 66.628 117.898H66.281C66.1522 117.898 66.0482 117.798 66.0482 117.675V113.085C66.0482 112.962 66.1522 112.861 66.281 112.861Z" fill="white"/>
<path d="M72.8328 115.912C73.4537 115.912 74.0522 115.5 74.0522 114.706C74.0522 113.912 73.4537 113.5 72.8328 113.5C72.2192 113.5 71.6207 113.912 71.6207 114.706C71.6207 115.5 72.2192 115.912 72.8328 115.912ZM70.8154 114.706C70.8154 113.436 71.7682 112.791 72.6774 112.791C73.3799 112.791 73.8672 113.159 74.008 113.45H74.0298V113.085C74.0298 112.962 74.1344 112.861 74.2632 112.861H74.6102C74.7389 112.861 74.8429 112.962 74.8429 113.085V116.327C74.8429 116.451 74.7389 116.55 74.6102 116.55H74.2632C74.1344 116.55 74.0298 116.451 74.0298 116.327V115.962H74.008C73.8672 116.252 73.3799 116.621 72.6774 116.621C71.7682 116.621 70.8154 115.976 70.8154 114.706Z" fill="white"/>
<path d="M76.1847 112.862H76.5317C76.6605 112.862 76.7651 112.962 76.7651 113.085V113.812C76.8981 113.259 77.2819 112.791 77.9838 112.791C78.0727 112.791 78.1465 112.798 78.2281 112.819V113.564C78.1465 113.55 78.0806 113.543 77.9917 113.543C77.2602 113.543 76.7651 114.053 76.7651 114.826V116.327C76.7651 116.45 76.6605 116.55 76.5317 116.55H76.1847C76.0559 116.55 75.952 116.45 75.952 116.327V113.085C75.952 112.962 76.0559 112.862 76.1847 112.862Z" fill="white"/>
<path d="M79.4918 115.657V113.717C79.4918 113.593 79.3878 113.493 79.259 113.493H79.1925C79.0644 113.493 78.9598 113.393 78.9598 113.269V113.085C78.9598 112.962 79.0644 112.862 79.1925 112.862H79.259C79.3878 112.862 79.4918 112.761 79.4918 112.638V112.142C79.4918 112.018 79.5958 111.918 79.7245 111.918H80.0794C80.2082 111.918 80.3122 112.018 80.3122 112.142V112.638C80.3122 112.761 80.4167 112.862 80.5449 112.862H80.8556C80.9838 112.862 81.0884 112.962 81.0884 113.085V113.269C81.0884 113.393 80.9838 113.493 80.8556 113.493H80.5449C80.4167 113.493 80.3122 113.593 80.3122 113.717V115.515C80.3122 115.727 80.4307 115.891 80.7335 115.891C80.8224 115.891 80.9475 115.877 81.0884 115.827V116.316C81.0884 116.403 81.0388 116.486 80.9554 116.519C80.817 116.574 80.6416 116.593 80.4893 116.593C79.9059 116.593 79.4918 116.316 79.4918 115.657Z" fill="white"/>
<path d="M82.2821 112.862H82.6292C82.7579 112.862 82.8619 112.962 82.8619 113.085V116.327C82.8619 116.45 82.7579 116.55 82.6292 116.55H82.2821C82.1534 116.55 82.0494 116.45 82.0494 116.327V113.085C82.0494 112.962 82.1534 112.862 82.2821 112.862ZM82.2821 111.513H82.6292C82.7579 111.513 82.8619 111.614 82.8619 111.737V111.993C82.8619 112.116 82.7579 112.216 82.6292 112.216H82.2821C82.1534 112.216 82.0494 112.116 82.0494 111.993V111.737C82.0494 111.614 82.1534 111.513 82.2821 111.513Z" fill="white"/>
<path d="M83.7861 114.706C83.7861 113.464 84.7908 112.791 85.7962 112.791C86.3874 112.791 86.9388 113.027 87.3045 113.493C87.3873 113.599 87.3571 113.75 87.241 113.82L87.0192 113.952C86.9212 114.011 86.7955 113.99 86.7199 113.906C86.4938 113.657 86.1698 113.507 85.8034 113.507C85.1826 113.507 84.5913 113.947 84.5913 114.706C84.5913 115.465 85.1826 115.905 85.8034 115.905C86.1698 115.905 86.4938 115.755 86.7199 115.505C86.7955 115.422 86.9212 115.401 87.0192 115.459L87.2398 115.591C87.3565 115.661 87.3861 115.814 87.3033 115.919C86.9376 116.381 86.3868 116.621 85.7962 116.621C84.7908 116.621 83.7861 115.948 83.7861 114.706Z" fill="white"/>
<path d="M88.5937 112.862H88.9407C89.0695 112.862 89.1741 112.962 89.1741 113.085V116.327C89.1741 116.45 89.0695 116.55 88.9407 116.55H88.5937C88.4649 116.55 88.361 116.45 88.361 116.327V113.085C88.361 112.962 88.4649 112.862 88.5937 112.862ZM88.5937 111.513H88.9407C89.0695 111.513 89.1741 111.614 89.1741 111.737V111.993C89.1741 112.116 89.0695 112.216 88.9407 112.216H88.5937C88.4649 112.216 88.361 112.116 88.361 111.993V111.737C88.361 111.614 88.4649 111.513 88.5937 111.513Z" fill="white"/>
<path d="M92.2926 115.912C92.9062 115.912 93.5047 115.5 93.5047 114.706C93.5047 113.912 92.9062 113.5 92.2926 113.5C91.6717 113.5 91.0732 113.912 91.0732 114.706C91.0732 115.5 91.6717 115.912 92.2926 115.912ZM90.5152 112.861H90.8622C90.991 112.861 91.0956 112.962 91.0956 113.085V113.45H91.1173C91.2576 113.159 91.7455 112.791 92.4479 112.791C93.3572 112.791 94.3099 113.436 94.3099 114.706C94.3099 115.976 93.3572 116.621 92.4479 116.621C91.7455 116.621 91.2576 116.252 91.1173 115.962H91.0956V117.675C91.0956 117.798 90.991 117.898 90.8622 117.898H90.5152C90.3864 117.898 90.2825 117.798 90.2825 117.675V113.085C90.2825 112.962 90.3864 112.861 90.5152 112.861Z" fill="white"/>
<path d="M97.067 115.912C97.6879 115.912 98.2864 115.5 98.2864 114.706C98.2864 113.912 97.6879 113.5 97.067 113.5C96.4534 113.5 95.8549 113.912 95.8549 114.706C95.8549 115.5 96.4534 115.912 97.067 115.912ZM95.0497 114.706C95.0497 113.436 96.0024 112.791 96.9117 112.791C97.6141 112.791 98.1014 113.159 98.2423 113.45H98.264V113.085C98.264 112.962 98.3686 112.861 98.4974 112.861H98.8444C98.9732 112.861 99.0771 112.962 99.0771 113.085V116.327C99.0771 116.451 98.9732 116.55 98.8444 116.55H98.4974C98.3686 116.55 98.264 116.451 98.264 116.327V115.962H98.2423C98.1014 116.252 97.6141 116.621 96.9117 116.621C96.0024 116.621 95.0497 115.976 95.0497 114.706Z" fill="white"/>
<path d="M100.038 116.16C100.038 115.891 100.253 115.706 100.511 115.706C100.777 115.706 100.991 115.891 100.991 116.16C100.991 116.43 100.777 116.622 100.511 116.622C100.253 116.622 100.038 116.43 100.038 116.16Z" fill="white"/>
<path d="M103.785 115.912C104.406 115.912 105.005 115.5 105.005 114.706C105.005 113.912 104.406 113.5 103.785 113.5C103.172 113.5 102.573 113.912 102.573 114.706C102.573 115.5 103.172 115.912 103.785 115.912ZM105.216 116.55C105.087 116.55 104.982 116.451 104.982 116.327V115.962H104.96C104.82 116.252 104.332 116.621 103.63 116.621C102.721 116.621 101.768 115.976 101.768 114.706C101.768 113.436 102.721 112.791 103.63 112.791C104.332 112.791 104.82 113.159 104.96 113.45H104.982V111.737C104.982 111.614 105.087 111.513 105.216 111.513H105.563C105.691 111.513 105.795 111.614 105.795 111.737V116.327C105.795 116.451 105.691 116.55 105.563 116.55H105.216Z" fill="white"/>
<path d="M108.308 111.365C108.462 111.365 108.641 111.385 108.799 111.438C108.891 111.47 108.951 111.556 108.951 111.65V111.825C108.951 111.961 108.825 112.067 108.685 112.045C108.614 112.034 108.552 112.031 108.508 112.031C108.138 112.031 107.931 112.223 107.931 112.635V112.862H108.719C108.847 112.862 108.951 112.962 108.951 113.085V113.27C108.951 113.393 108.847 113.493 108.719 113.493H108.164C108.036 113.493 107.931 113.593 107.931 113.716V116.327C107.931 116.451 107.827 116.55 107.698 116.55H107.344C107.215 116.55 107.111 116.451 107.111 116.327V113.716C107.111 113.593 107.007 113.493 106.878 113.493C106.75 113.493 106.645 113.393 106.645 113.27V113.085C106.645 112.962 106.75 112.862 106.878 112.862H107.111V112.542C107.111 111.549 107.82 111.365 108.308 111.365Z" fill="white"/>
<path d="M109.432 116.16C109.432 115.891 109.646 115.706 109.905 115.706C110.171 115.706 110.385 115.891 110.385 116.16C110.385 116.43 110.171 116.622 109.905 116.622C109.646 116.622 109.432 116.43 109.432 116.16Z" fill="white"/>
<path d="M113.179 115.912C113.8 115.912 114.398 115.5 114.398 114.706C114.398 113.912 113.8 113.5 113.179 113.5C112.565 113.5 111.967 113.912 111.967 114.706C111.967 115.5 112.565 115.912 113.179 115.912ZM112.084 117.651V117.482C112.084 117.33 112.237 117.224 112.388 117.269C112.575 117.326 112.812 117.366 113.068 117.366C113.814 117.366 114.376 117.04 114.376 116.345V115.962H114.332C114.199 116.252 113.718 116.621 113.023 116.621C112.122 116.621 111.161 115.976 111.161 114.706C111.161 113.436 112.122 112.791 113.023 112.791C113.718 112.791 114.199 113.159 114.332 113.45H114.376V113.085C114.376 112.962 114.48 112.861 114.609 112.861H114.956C115.085 112.861 115.189 112.962 115.189 113.085V116.302C115.189 117.665 114.088 118.026 113.208 118.026C112.815 118.026 112.451 117.955 112.219 117.854C112.135 117.819 112.084 117.738 112.084 117.651Z" fill="white"/>
<path d="M118.123 115.905C118.751 115.905 119.32 115.465 119.32 114.706C119.32 113.947 118.751 113.507 118.123 113.507C117.495 113.507 116.918 113.947 116.918 114.706C116.918 115.465 117.495 115.905 118.123 115.905ZM116.113 114.706C116.113 113.464 117.126 112.791 118.123 112.791C119.121 112.791 120.133 113.464 120.133 114.706C120.133 115.948 119.121 116.621 118.123 116.621C117.126 116.621 116.113 115.948 116.113 114.706Z" fill="white"/>
<path d="M120.928 112.862H121.256C121.35 112.862 121.435 112.917 121.471 113.001L122.363 115.098C122.443 115.284 122.716 115.284 122.795 115.098L123.681 113.001C123.717 112.917 123.802 112.862 123.897 112.862H124.231C124.398 112.862 124.511 113.025 124.445 113.172L123.017 116.414C122.981 116.497 122.896 116.55 122.802 116.55H122.35C122.256 116.55 122.172 116.497 122.135 116.414L120.713 113.172C120.648 113.025 120.761 112.862 120.928 112.862Z" fill="white"/>
<path d="M124.546 116.16C124.546 115.891 124.76 115.706 125.019 115.706C125.285 115.706 125.499 115.891 125.499 116.16C125.499 116.43 125.285 116.622 125.019 116.622C124.76 116.622 124.546 116.43 124.546 116.16Z" fill="white"/>
<path d="M128.47 115.912C129.084 115.912 129.682 115.5 129.682 114.706C129.682 113.912 129.084 113.5 128.47 113.5C127.849 113.5 127.251 113.912 127.251 114.706C127.251 115.5 127.849 115.912 128.47 115.912ZM127.041 111.513C127.169 111.513 127.273 111.614 127.273 111.737V113.45H127.295C127.435 113.159 127.923 112.791 128.626 112.791C129.535 112.791 130.488 113.436 130.488 114.706C130.488 115.976 129.535 116.621 128.626 116.621C127.923 116.621 127.435 116.252 127.295 115.962H127.273V116.327C127.273 116.451 127.169 116.55 127.041 116.55H126.693C126.564 116.55 126.46 116.451 126.46 116.327V111.737C126.46 111.614 126.564 111.513 126.693 111.513H127.041Z" fill="white"/>
<path d="M131.645 112.862H131.992C132.121 112.862 132.225 112.962 132.225 113.085V113.812C132.358 113.259 132.742 112.791 133.444 112.791C133.533 112.791 133.607 112.798 133.688 112.819V113.564C133.607 113.55 133.541 113.543 133.452 113.543C132.72 113.543 132.225 114.053 132.225 114.826V116.327C132.225 116.45 132.121 116.55 131.992 116.55H131.645C131.516 116.55 131.412 116.45 131.412 116.327V113.085C131.412 112.962 131.516 112.862 131.645 112.862Z" fill="white"/>
<path d="M109.787 19.5168C111.193 19.9835 112.599 20.4527 114.005 20.9212C115.875 21.5439 117.744 22.1684 119.616 22.7868C119.915 22.886 120.129 23.0552 120.181 23.3762C120.234 23.7051 120.088 23.9433 119.82 24.1307C119.213 24.5563 118.611 24.991 117.956 25.4595C118.038 25.5175 118.11 25.5556 118.165 25.61C118.997 26.4377 119.828 27.2671 120.658 28.0971C121.035 28.4744 121.035 28.8673 120.661 29.2415C119.967 29.935 119.273 30.6278 118.579 31.32C118.196 31.7014 117.803 31.6996 117.416 31.3133C116.589 30.4905 115.763 29.6665 114.939 28.8413C114.882 28.7839 114.839 28.712 114.777 28.6334C114.317 29.2748 113.883 29.8751 113.455 30.4803C113.311 30.684 113.139 30.8345 112.882 30.8575C112.523 30.8895 112.238 30.6876 112.113 30.3128C111.677 29.0076 111.244 27.7006 110.807 26.3953C110.158 24.4511 109.506 22.5075 108.858 20.5633C108.806 20.4097 108.744 20.2568 108.768 20.0875C108.835 19.5984 109.278 19.3482 109.787 19.5168ZM125.131 26.7031L122.712 17.9577C122.095 15.7306 119.769 14.412 117.541 15.0287L107.078 17.9232C104.851 18.5393 103.532 20.8662 104.148 23.0933L106.568 31.8387C107.184 34.0658 109.511 35.3843 111.738 34.7677L122.202 31.8731C124.429 31.2571 125.748 28.9302 125.131 26.7031Z" fill="#0072BF"/>
<path d="M118.58 43.1812C119.346 41.5918 120.594 40.5592 122.354 40.2564C123.947 39.9825 125.363 40.4589 126.606 41.4612C127.696 42.3402 128.394 43.4828 128.852 45.0305C129.319 46.9445 129.055 48.9213 127.638 50.6521C126.17 52.444 123.67 52.9319 121.586 51.9229C118.438 50.3982 117.047 46.3623 118.58 43.1812ZM117.357 56.3554C118.184 55.1826 119.259 54.2734 120.455 53.4965C120.608 53.3968 120.735 53.4252 120.885 53.4947C121.922 53.9753 123.01 54.2135 124.157 54.1573C125.428 54.095 126.585 53.7015 127.631 52.9712C128.3 52.5039 128.869 51.9398 129.333 51.27C129.443 51.1104 129.569 51.0185 129.781 51.0294C130.875 51.0844 131.946 51.2591 132.976 51.6315C134.171 52.0637 135.222 52.6677 135.951 53.6458C137.085 52.1248 137.536 50.1147 136.994 48.1548L134.458 38.988C133.528 35.6237 130.013 33.6324 126.649 34.5634L114.367 37.9609C111.003 38.8919 109.012 42.4055 109.942 45.7698L112.479 54.9372C113.024 56.9104 114.46 58.4097 116.232 59.126C116.34 58.1062 116.763 57.1982 117.357 56.3554Z" fill="#118E3E"/>
<path d="M83.0772 44.8426C81.9679 45.1448 81.6221 46.1442 81.8464 46.9657C82.0646 47.7668 82.8638 48.4318 83.9732 48.1295C85.0825 47.8272 85.4132 46.8539 85.195 46.0529C84.9707 45.2313 84.1866 44.5403 83.0772 44.8426Z" fill="#F8AD12"/>
<path d="M100.237 46.7641L91.6407 49.1067C91.1511 49.2403 90.717 48.7609 90.8984 48.287L93.3347 41.9144C94.4126 39.1493 94.6109 38.4994 94.3703 37.6161C93.9725 36.1574 92.8523 36.4185 92.6262 36.4802C92.1945 36.5981 91.2611 37.1391 91.642 38.5362L91.7538 38.9467L88.7571 39.7635C88.427 39.8536 88.0854 39.6589 87.9953 39.3282L87.9681 39.2285C87.3189 36.8453 88.2384 34.1454 91.7713 33.1824C94.8938 32.3312 97.3229 33.6334 97.9891 36.0776C98.4763 37.8652 97.7872 39.4654 96.9783 41.5173L96.2413 43.4796C96.063 43.953 96.4965 44.4294 96.9849 44.2964L99.3856 43.6416C99.7163 43.5516 100.057 43.7468 100.147 44.0775L100.672 46.0024C100.762 46.3331 100.567 46.674 100.237 46.7641ZM84.7665 51.2015C82.1778 51.907 79.2838 50.8418 78.4212 47.6782C77.8057 45.419 78.536 43.5643 79.1883 41.9084L81.2389 36.5376C81.3097 36.3526 81.4644 36.2124 81.6555 36.1604L84.1571 35.4785C84.6474 35.3449 85.0814 35.8243 84.9001 36.2988L82.8108 41.7591C82.9081 41.7107 83.0314 41.6775 83.1541 41.6436C85.3317 41.0506 87.7964 42.3207 88.5358 45.0321C89.3701 48.0929 87.3545 50.496 84.7665 51.2015ZM77.4769 52.9674L75.1203 53.6094C74.7896 53.6995 74.4487 53.5048 74.3586 53.1741L71.5892 43.0117C71.4991 42.681 71.1575 42.4857 70.8275 42.5758L69.4358 42.9555C69.1051 43.0456 68.7641 42.8503 68.6741 42.5196L68.1215 40.492C68.0314 40.1613 68.2261 39.8203 68.5568 39.7302L73.502 38.3827C73.8327 38.2926 74.1736 38.4873 74.2637 38.818L77.9121 52.2056C78.0022 52.5363 77.8075 52.8773 77.4769 52.9674ZM106.02 44.1265L102.573 31.4782C101.336 26.9405 96.6113 24.2394 92.073 25.4762L68.8149 31.8149C64.2772 33.0518 61.5767 37.7763 62.8136 42.3141L66.2607 54.9624C67.4976 59.5001 72.2221 62.2012 76.7599 60.9643L100.018 54.6256C104.556 53.3887 107.256 48.6642 106.02 44.1265Z" fill="#F8AD12"/>
</g>
</svg>
